# xmcd
#
# Track frame offsets: 
#        150
#        16705
#        34747
#        54185
#        70502
#        86202
#        106640
#        124531
#        147060
#        164261
#        182334
#        202209
#
# Disc length: 3012 seconds
#
# Revision: 0
# Processed by: cddbd v1.5.2PL0 Copyright (c) Steve Scherf et al.
# Submitted via: ExactAudioCopy v0.95b4
#
DISCID=8e0bc20c
DTITLE=Delana Stevens - Welcome To My World
DYEAR=2006
DGENRE=Country
TTITLE0=Welcome To My World
TTITLE1=Smarter Everyday
TTITLE2=Don't Sweat The Little Things
TTITLE3=Wouldn't Be Love
TTITLE4=Whiskey Road
TTITLE5=Good Enough For Me
TTITLE6=Say Hello To Heaven
TTITLE7=The Bed You Made
TTITLE8=Whiskey Roulette
TTITLE9=Girl's Gone Wild
TTITLE10=Why Can't You
TTITLE11=I Already Am
EXTD=
EXTT0=
EXTT1=
EXTT2=
EXTT3=
EXTT4=
EXTT5=
EXTT6=
EXTT7=
EXTT8=
EXTT9=
EXTT10=
EXTT11=
PLAYORDER=
